<svg width="38" height="38" viewBox="0 0 38 38" fill="none" xmlns="http://www.w3.org/2000/svg">
<g clip-path="url(#clip0)">
<path d="M25.1339 11.0847C24.6395 11.0847 24.238 11.4861 24.238 11.9805C24.238 12.4756 24.6395 12.8763 25.1339 12.8763C25.629 12.8763 26.0297 12.4757 26.0297 11.9805C26.0297 11.4861 25.629 11.0847 25.1339 11.0847Z" fill="black"/>
<path d="M25.1339 11.0847C24.6395 11.0847 24.238 11.4861 24.238 11.9805C24.238 12.4756 24.6395 12.8763 25.1339 12.8763C25.629 12.8763 26.0297 12.4757 26.0297 11.9805C26.0297 11.4861 25.629 11.0847 25.1339 11.0847Z" fill="black"/>
<path d="M35.4204 13.4097L28.0251 11.3682C27.7424 10.0311 26.5538 9.02515 25.1339 9.02515C24.313 9.02515 23.536 9.36722 22.9823 9.95607C22.9823 9.95607 8.04108 9.95607 8.03255 9.95607C5.02966 9.95607 2.30004 11.611 0.909922 14.2749C0.907547 14.2781 0.905988 14.282 0.903687 14.2858C0.901312 14.2898 0.620988 14.87 0.510848 15.1653C0.171816 16.0674 0 17.0171 0 17.9886C0 20.9142 1.1348 23.6664 3.19504 25.7377C5.25454 27.8081 7.99818 28.9577 10.9214 28.9749H10.937C11.8336 28.9631 12.5631 28.2235 12.5631 27.327C12.5631 26.4179 11.8235 25.6783 10.9144 25.6783H10.6402C9.03762 25.6783 7.73337 24.374 7.73337 22.7714C7.73337 22.0553 7.99343 21.3766 8.45893 20.8494C8.66905 20.9181 8.89319 20.9564 9.12594 20.9564H13.9197C14.3508 20.9564 14.7007 20.6065 14.7007 20.1754C14.7007 20.0699 14.6952 19.9661 14.6866 19.8638H17.4045C17.7739 20.5151 18.4729 20.9563 19.2734 20.9563H24.0671C24.4983 20.9563 24.8481 20.6065 24.8481 20.1753C24.8481 20.0699 24.8426 19.966 24.8341 19.8637H36.146C37.1629 19.8637 37.9931 19.0366 37.9954 18.0213L38 16.8093C38.0047 15.2286 36.9441 13.8298 35.4204 13.4097ZM9.12594 19.3944C8.8042 19.3944 8.54176 19.132 8.54176 18.8102V16.5235C8.54176 16.1892 8.81429 15.9167 9.14857 15.9167C9.4836 15.9167 9.75539 16.1892 9.75539 16.5235V17.399C9.75539 17.8308 10.1053 18.18 10.5364 18.18H11.144C11.9672 18.18 12.6748 18.6814 12.9794 19.3944H9.12594ZM19.2733 19.3944C18.9508 19.3944 18.6892 19.132 18.6892 18.8102V16.5235C18.6892 16.1892 18.961 15.9167 19.296 15.9167C19.631 15.9167 19.9028 16.1892 19.9028 16.5235V17.399C19.9028 17.8308 20.2527 18.18 20.6838 18.18H21.2914C22.1138 18.18 22.8222 18.6814 23.1268 19.3944H19.2733ZM36.1459 18.3018H24.3123C23.7133 17.3381 22.6667 16.6805 21.4648 16.6227V16.5235C21.4648 15.3279 20.4916 14.3547 19.296 14.3547C18.1002 14.3547 17.1272 15.3279 17.1272 16.5235V18.3019H14.1649C13.5659 17.3382 12.5193 16.6806 11.3174 16.6228V16.5236C11.3174 15.328 10.3451 14.3548 9.14857 14.3548C7.95291 14.3548 6.97975 15.328 6.97975 16.5236V18.8104C6.97975 19.1907 7.07973 19.5477 7.25392 19.8577C6.55886 20.6606 6.17144 21.6875 6.17144 22.7716C6.17144 25.2356 8.17623 27.2404 10.6403 27.2404H10.9145C10.9621 27.2404 11.0011 27.2795 11.0011 27.3271C11.0011 27.3732 10.9644 27.4107 10.9191 27.4131C8.41604 27.3958 6.06605 26.4095 4.30254 24.6366C2.53516 22.8598 1.56201 20.4989 1.56201 17.9888C1.56201 17.2055 1.70028 16.4409 1.97281 15.7145C2.06261 15.4747 2.16808 15.2381 2.28675 15.0124C2.28987 15.0061 2.29299 14.9999 2.29611 14.9944C2.29611 14.9937 2.29611 14.9929 2.29685 14.9929C3.41681 12.8513 5.61057 11.5213 8.02468 11.5182L8.01221 11.5307C7.7373 11.8056 7.7373 12.2508 8.01221 12.5249C8.14966 12.6624 8.32927 12.7311 8.50896 12.7311C8.68938 12.7311 8.86899 12.6624 9.00644 12.5249L10.0131 11.5182H10.7441L10.7317 11.5307C10.4575 11.8056 10.4575 12.2508 10.7317 12.5249C10.8691 12.6624 11.0487 12.7311 11.2291 12.7311C11.4088 12.7311 11.5884 12.6624 11.7259 12.5249L12.7326 11.5182H13.4636L13.4511 11.5307C13.177 11.8056 13.177 12.2508 13.4511 12.5249C13.5886 12.6624 13.7682 12.7311 13.9486 12.7311C14.1282 12.7311 14.3079 12.6624 14.4453 12.5249L15.452 11.5182H16.183L16.1706 11.5307C15.8965 11.8056 15.8965 12.2508 16.1706 12.5249C16.308 12.6624 16.4876 12.7311 16.668 12.7311C16.8477 12.7311 17.0273 12.6624 17.1648 12.5249L18.1715 11.5182H18.9033L18.89 11.5307C18.6159 11.8056 18.6159 12.2508 18.89 12.5249C19.0275 12.6624 19.2071 12.7311 19.3875 12.7311C19.5671 12.7311 19.7468 12.6624 19.8842 12.5249L20.8909 11.5182H23.3519C23.6073 11.5182 23.847 11.3932 23.9931 11.1832C24.2524 10.8099 24.6796 10.5873 25.1341 10.5873C25.9026 10.5873 26.5274 11.2121 26.5274 11.9806C26.5274 12.332 26.7617 12.6397 27.1007 12.7335L35.0051 14.9156C35.2636 14.9867 35.4971 15.1093 35.6979 15.2686C35.6675 15.2912 34.9193 16.0332 34.9193 16.0332L34.2296 15.3428C34.0977 15.2108 33.9188 15.1366 33.7321 15.1366C33.5463 15.1366 33.3674 15.2108 33.2354 15.3428L32.545 16.0332L31.8546 15.3428C31.7227 15.2108 31.5438 15.1366 31.3579 15.1366C31.1712 15.1366 30.9923 15.2108 30.8604 15.3428L30.17 16.0332L29.4804 15.3428C29.2055 15.0679 28.7603 15.0679 28.4861 15.3428L27.7957 16.0332L27.1054 15.3428C26.8312 15.0679 26.386 15.0679 26.1111 15.3428C25.837 15.6169 25.837 16.0621 26.1111 16.337L27.2983 17.5242C27.4302 17.6561 27.6091 17.7303 27.7957 17.7303C27.9816 17.7303 28.1604 17.6561 28.2925 17.5242L28.9829 16.8338L29.6733 17.5242C29.8052 17.6561 29.9841 17.7303 30.17 17.7303C30.3567 17.7303 30.5355 17.6561 30.6675 17.5242L31.3579 16.8338L32.0483 17.5242C32.1795 17.6561 32.3583 17.7303 32.545 17.7303C32.7317 17.7303 32.9105 17.6561 33.0417 17.5242L33.7321 16.8338L34.4225 17.5242C34.6974 17.7982 35.1418 17.7982 35.4167 17.5242L36.4195 16.5425C36.4312 16.6284 36.4335 18.0162 36.4335 18.0162C36.4326 18.1737 36.3037 18.3018 36.1459 18.3018Z" fill="black"/>
<path d="M25.1339 11.0847C24.6395 11.0847 24.238 11.4861 24.238 11.9805C24.238 12.4756 24.6395 12.8763 25.1339 12.8763C25.629 12.8763 26.0297 12.4757 26.0297 11.9805C26.0297 11.4861 25.629 11.0847 25.1339 11.0847Z" fill="black"/>
</g>
<defs>
<clipPath id="clip0">
<rect width="38" height="38" fill="white"/>
</clipPath>
</defs>
</svg>
