<svg width="6094" height="5779" viewBox="0 0 6094 5779" fill="none" xmlns="http://www.w3.org/2000/svg">
<path d="M4852.98 5746.45C4784.46 5640.55 4700.37 5512.85 4619.39 5382.04C4510.38 5210.73 4329.73 5188.93 4158.43 5167.13C3924.83 5135.98 3688.12 5154.67 3460.76 5039.43C3404.69 5011.4 3261.42 5114.18 3177.33 5179.59C3058.97 5273.03 2956.19 5288.6 2859.64 5185.82C2772.43 5095.49 2766.2 4877.47 2865.87 4808.95C2974.88 4731.08 2993.56 4628.3 2915.7 4544.21C2763.08 4385.36 2806.69 4195.37 2809.8 4014.73C2809.8 3896.37 2840.95 3781.13 2859.64 3662.77C2881.44 3513.27 2831.61 3450.98 2682.1 3450.98C2548.18 3450.98 2411.13 3460.33 2277.21 3457.21C2218.03 3454.1 2155.74 3438.52 2102.79 3413.61C1990.66 3360.66 1993.78 3304.6 2087.21 3220.5C2174.42 3139.52 2255.4 3042.97 2308.35 2940.19C2361.3 2834.29 2308.35 2747.08 2193.11 2712.82C2043.61 2669.22 1981.32 2588.24 1981.32 2423.16C1978.2 2152.19 1638.71 1906.14 1377.09 1974.66C1302.33 1993.35 1221.35 2064.98 1180.86 2136.62C1127.92 2230.06 1068.74 2226.94 1006.45 2180.22C838.259 2058.75 651.382 2093.01 467.621 2089.9C355.495 2089.9 293.203 2136.62 290.088 2254.97C290.088 2301.69 277.63 2348.41 255.828 2388.9C230.911 2435.62 187.306 2476.11 149.931 2519.72C100.097 2469.88 12.8885 2426.28 9.77391 2373.33C-5.79911 2155.31 0.430096 1937.28 6.6593 1722.38C6.6593 1694.34 44.0345 1647.63 65.8368 1644.51C324.349 1628.94 476.965 1445.18 645.153 1286.33C729.247 1208.47 810.227 1171.09 922.353 1189.78C1028.25 1208.47 1112.34 1192.89 1193.32 1096.34C1383.31 872.089 1591.99 663.411 1813.13 429.815C1909.68 532.597 2003.12 619.806 2077.87 722.588C2155.74 825.37 2252.29 844.058 2364.41 825.37C2476.54 806.683 2482.77 722.588 2501.46 629.15C2513.92 573.087 2576.21 504.566 2629.16 485.878C2816.03 423.586 2971.76 342.606 3024.71 140.157C3167.98 149.501 3199.13 242.939 3220.93 342.606C3242.73 442.274 3236.5 551.285 3264.54 647.838C3286.34 719.474 3333.06 819.141 3389.12 837.829C3442.07 856.516 3523.05 781.766 3591.57 744.39C3653.86 710.13 3719.27 675.869 3778.45 635.379C3921.72 535.712 4068.1 439.159 4202.03 330.148C4314.16 239.825 4407.6 127.699 4535.29 0C4694.14 165.074 4843.64 320.804 4990.03 476.534C5086.58 582.431 5173.79 697.671 5279.68 794.224C5323.29 834.714 5401.15 856.516 5460.33 853.402C5584.92 850.287 5609.83 903.235 5600.49 1012.25C5588.03 1121.26 5600.49 1230.27 5591.14 1339.28C5556.88 1744.18 5731.3 2077.44 5946.21 2398.25C5983.58 2454.31 6017.85 2510.37 6048.99 2572.66C6126.86 2725.28 6105.05 2828.06 5971.13 2937.07C5952.44 2952.65 5933.75 2974.45 5911.95 2986.91C5737.53 3095.92 5690.81 3161.32 5868.34 3329.51C5964.9 3422.95 5989.81 3541.31 5868.34 3653.43C5787.36 3728.18 5809.17 3812.28 5818.51 3915.06C5834.08 4073.9 5790.48 4248.32 5731.3 4400.94C5597.37 4743.54 5644.09 5045.66 5871.46 5329.09C5961.78 5441.21 6064.56 5568.91 5961.78 5702.84C5855.89 5843 5709.5 5755.79 5578.69 5702.84C5444.76 5649.89 5304.6 5578.26 5167.56 5575.14C5067.89 5572.03 4971.34 5674.81 4852.98 5746.45Z" fill="black"/>
</svg>
